HIERARCHY
ROOT joint_0
{
	OFFSET 0.000000 0.000000 0.000000
	CHANNELS 6 Xposition Yposition Zposition Zrotation Yrotation Xrotation 
	JOINT joint_1
	{
		OFFSET 6.590088 -1.122192 114.019043
		CHANNELS 3 Zrotation Yrotation Xrotation
		JOINT joint_2
		{
			OFFSET -5.956055 -0.820435 104.151001
			CHANNELS 3 Zrotation Yrotation Xrotation
			JOINT joint_3
			{
				OFFSET -7.343506 -1.103027 103.942993
				CHANNELS 3 Zrotation Yrotation Xrotation
				JOINT joint_4
				{
					OFFSET 3.109131 -2.857056 147.715942
					CHANNELS 3 Zrotation Yrotation Xrotation
					JOINT joint_5
					{
						OFFSET 28.592285 -2.852295 87.703979
						CHANNELS 3 Zrotation Yrotation Xrotation
						End Site
						{
							OFFSET 0.000000 0.000000 0.000000
						}
					}
				}
				JOINT joint_6
				{
					OFFSET -0.332520 -33.687378 82.401978
					CHANNELS 3 Zrotation Yrotation Xrotation
					JOINT joint_7
					{
						OFFSET -7.397461 -168.719177 -22.750977
						CHANNELS 3 Zrotation Yrotation Xrotation
						JOINT joint_8
						{
							OFFSET 17.065918 -24.903137 -272.721069
							CHANNELS 3 Zrotation Yrotation Xrotation
							JOINT joint_9
							{
								OFFSET 33.311279 -37.031616 -278.192993
								CHANNELS 3 Zrotation Yrotation Xrotation
								End Site
								{
									OFFSET 0.000000 0.000000 0.000000
								}
							}
						}
					}
				}
				JOINT joint_10
				{
					OFFSET 3.914307 30.461670 83.552979
					CHANNELS 3 Zrotation Yrotation Xrotation
					JOINT joint_11
					{
						OFFSET 15.543701 166.845459 -30.963013
						CHANNELS 3 Zrotation Yrotation Xrotation
						JOINT joint_12
						{
							OFFSET 35.734863 35.017700 -269.786011
							CHANNELS 3 Zrotation Yrotation Xrotation
							JOINT joint_13
							{
								OFFSET 70.506592 13.977783 -273.320007
								CHANNELS 3 Zrotation Yrotation Xrotation
								End Site
								{
									OFFSET 0.000000 0.000000 0.000000
								}
							}
						}
					}
				}
			}
		}
	}
	JOINT joint_14
	{
		OFFSET -0.314697 -95.093994 -116.004028
		CHANNELS 3 Zrotation Yrotation Xrotation
		JOINT joint_15
		{
			OFFSET -22.490723 2.017883 -455.510986
			CHANNELS 3 Zrotation Yrotation Xrotation
			JOINT joint_16
			{
				OFFSET -46.427490 7.144104 -496.360985
				CHANNELS 3 Zrotation Yrotation Xrotation
				JOINT joint_17
				{
					OFFSET 209.055420 -37.122803 -85.191002
					CHANNELS 3 Zrotation Yrotation Xrotation
					End Site
					{
						OFFSET 0.000000 0.000000 0.000000
					}
				}
			}
		}
	}
	JOINT joint_18
	{
		OFFSET 5.652832 94.642578 -116.244019
		CHANNELS 3 Zrotation Yrotation Xrotation
		JOINT joint_19
		{
			OFFSET -12.379883 -7.332642 -455.843994
			CHANNELS 3 Zrotation Yrotation Xrotation
			JOINT joint_20
			{
				OFFSET -45.227051 -8.172241 -496.457985
				CHANNELS 3 Zrotation Yrotation Xrotation
				JOINT joint_21
				{
					OFFSET 210.522949 -11.530396 -88.809004
					CHANNELS 3 Zrotation Yrotation Xrotation
					End Site
					{
						OFFSET 0.000000 0.000000 0.000000
					}
				}
			}
		}
	}
}
MOTION
Frames: 9
Frame Time: 0.016667
-2499.173340 982.496094 1198.779053 6.666534 1.550085 1.421561 0.718890 4.782486 -2.114251 1.107890 -0.814451 0.474308 1.106748 0.957237 -0.174132 -0.282540 -1.317933 0.820542 0.000000 0.000000 0.000000 -2.113106 8.290931 -0.427319 -1.747471 8.500168 -2.529144 3.118722 -50.264980 3.766806 0.000000 0.000000 0.000000 4.345621 6.061780 6.220117 0.895382 4.695107 7.189440 -7.175938 -50.573067 -13.128596 0.000000 0.000000 0.000000 -1.862210 -0.938630 -3.145762 -1.999206 5.604824 -0.497715 -2.073327 3.479334 -0.214814 0.000000 0.000000 0.000000 1.584004 -10.663093 4.139370 1.258691 20.488909 -2.497570 2.255071 3.842384 1.127804 0.000000 0.000000 0.000000 
-2490.501465 981.589966 1202.994995 6.219277 1.312944 1.050677 1.129817 5.547660 -1.613010 1.729076 -1.001685 0.265541 1.771541 1.087869 -0.254737 -0.334820 -0.600310 0.995466 0.000000 0.000000 0.000000 -2.621916 7.116597 -0.508348 -2.455183 7.485921 -4.542757 2.952788 -59.173666 3.184818 0.000000 0.000000 0.000000 3.931697 5.205564 6.125802 1.752081 3.454228 9.013110 -7.528993 -59.248954 -13.853621 0.000000 0.000000 0.000000 -1.237742 -0.865374 -2.861766 -1.380749 6.605571 -0.535629 -1.518365 4.581882 0.209179 0.000000 0.000000 0.000000 1.580039 -14.431046 5.322749 0.929147 27.191912 -3.769650 2.590900 6.145650 1.364909 0.000000 0.000000 0.000000 
-2480.207520 981.794128 1206.009033 6.157709 1.016097 0.820624 1.329513 5.946137 -1.268555 2.134022 -1.095775 0.121520 2.222143 1.131364 -0.278051 -0.370564 -0.036359 1.105530 0.000000 0.000000 0.000000 -2.835463 5.513895 -0.416936 -3.259088 6.118262 -7.197023 2.624725 -67.848456 2.251658 0.000000 0.000000 0.000000 3.669458 3.952977 5.824476 2.749002 1.821394 9.847837 -7.725248 -67.194881 -14.016716 0.000000 0.000000 0.000000 -0.678667 -0.191413 -2.715636 -0.789957 6.904892 -0.629026 -0.978527 5.466306 0.586452 0.000000 0.000000 0.000000 0.920120 -17.289655 6.155450 -0.137890 31.668558 -5.181011 1.647362 7.037108 1.016050 0.000000 0.000000 0.000000 
-2468.988281 982.709900 1208.364990 6.354813 0.755977 0.681027 1.424493 6.048785 -1.063285 2.405739 -1.112869 0.077159 2.534600 1.133726 -0.299195 -0.373079 0.444393 1.122230 0.000000 0.000000 0.000000 -2.991541 3.086430 0.242225 -4.143570 4.029160 -10.684716 2.214841 -75.502999 0.992338 0.000000 0.000000 0.000000 3.436957 2.114199 5.195296 3.823800 -0.358591 9.936888 -7.908203 -74.174142 -13.855427 0.000000 0.000000 0.000000 -0.178909 0.762030 -2.636032 -0.208537 6.790749 -0.788458 -0.442418 6.236362 0.940244 0.000000 0.000000 0.000000 0.001583 -19.823156 6.719493 -1.516402 34.767889 -6.584819 -0.122591 6.938704 0.303002 0.000000 0.000000 0.000000 
-2457.306885 983.862427 1210.194946 6.647969 0.724767 0.637288 1.564263 5.913939 -1.043904 2.620646 -1.073446 0.139470 2.767692 1.110594 -0.345393 -0.356989 0.788721 1.100149 0.000000 0.000000 0.000000 -3.192634 0.238480 0.900672 -4.692718 1.519585 -13.429733 2.050993 -79.693347 -0.176484 0.000000 0.000000 0.000000 3.191357 -0.340305 4.628235 4.638391 -2.854281 9.167182 -8.279224 -78.435416 -14.233612 0.000000 0.000000 0.000000 0.212336 1.431279 -2.589227 0.263639 6.806866 -1.000210 -0.007126 6.810383 1.217324 0.000000 0.000000 0.000000 -0.754850 -21.923821 6.904427 -2.583889 35.510614 -7.228655 -1.766248 6.190918 -0.379119 0.000000 0.000000 0.000000 
-2445.435303 984.961914 1211.880005 6.978542 1.006269 0.718258 1.878308 5.548564 -1.262321 2.846604 -0.972363 0.273552 2.968835 1.051447 -0.411727 -0.360069 0.955563 1.154240 0.000000 0.000000 0.000000 -3.436535 -2.420863 1.018353 -4.762353 -0.816801 -14.123899 2.334907 -80.775035 -1.353270 0.000000 0.000000 0.000000 2.751202 -3.400637 4.221802 5.148645 -5.353039 7.553933 -8.820643 -79.800503 -15.652474 0.000000 0.000000 0.000000 0.469657 1.614027 -2.549178 0.549413 7.070917 -1.322157 0.252917 7.313316 1.411248 0.000000 0.000000 0.000000 -1.343329 -23.245514 6.604300 -3.127620 32.499649 -6.527723 -2.772714 4.594964 -0.857872 0.000000 0.000000 0.000000 
-2433.101562 986.299133 1213.038940 7.239920 1.442301 0.795725 2.279513 5.104707 -1.471583 3.085304 -0.895868 0.349443 3.171710 0.968612 -0.474407 -0.376031 0.978847 1.267986 0.000000 0.000000 0.000000 -3.603020 -4.834460 0.988785 -4.580092 -2.827903 -13.856429 2.890800 -80.525925 -2.567300 0.000000 0.000000 0.000000 2.233407 -6.758132 3.614720 5.506593 -7.658951 5.543246 -9.351651 -79.463302 -17.738078 0.000000 0.000000 0.000000 0.676430 1.567403 -2.443618 0.760298 7.480380 -1.714728 0.443823 7.676088 1.553268 0.000000 0.000000 0.000000 -1.847085 -23.689633 6.047180 -3.394646 26.443026 -4.829982 -3.332930 3.450261 -1.145796 0.000000 0.000000 0.000000 
-2419.954346 988.274597 1212.649048 7.392231 1.951602 0.751649 2.569710 4.661595 -1.474600 3.247010 -0.876528 0.321131 3.317013 0.879922 -0.519766 -0.387863 0.907975 1.378520 0.000000 0.000000 0.000000 -3.493353 -6.774964 1.068384 -4.477143 -4.409013 -13.886148 3.339654 -79.624083 -3.003001 0.000000 0.000000 0.000000 2.028096 -9.769124 2.968185 5.676541 -9.435914 3.509494 -9.810079 -78.170879 -19.944690 0.000000 0.000000 0.000000 0.906240 1.346551 -2.320256 0.981143 8.239545 -1.939368 0.661983 7.480038 1.605238 0.000000 0.000000 0.000000 -2.245187 -23.890777 5.536137 -3.666599 20.178556 -3.011750 -3.765716 4.486847 -1.264542 0.000000 0.000000 0.000000 
-2405.644531 990.963684 1210.503052 7.886051 2.829814 0.833747 2.614856 3.765801 -1.751779 3.156524 -0.714271 0.444777 3.179622 0.743339 -0.540123 -0.401118 0.727081 1.488394 0.000000 0.000000 0.000000 -2.955159 -7.998523 1.091558 -4.752257 -5.576460 -14.239342 3.378471 -77.765394 -1.695910 0.000000 0.000000 0.000000 2.461513 -12.287629 2.670349 5.390992 -10.572774 1.156744 -10.339200 -75.694953 -22.002150 0.000000 0.000000 0.000000 1.036156 0.783604 -2.463136 1.052246 9.254398 -1.895096 0.767734 6.507891 1.469267 0.000000 0.000000 0.000000 -2.880193 -24.648884 4.800196 -4.379285 14.728651 -1.329704 -4.572606 8.016921 -1.393101 0.000000 0.000000 0.000000 
